<svg width="547" height="455" viewBox="0 0 547 455" fill="none" xmlns="http://www.w3.org/2000/svg">
<g id="undraw_online_chat_d7ek 1 1" clip-path="url(#clip0)">
<g id="undraw online chat d7ek 1">
<path id="Vector" d="M344.853 196.04C344.983 195.834 344.644 195.386 344.095 195.039C343.546 194.691 342.996 194.576 342.865 194.782C342.735 194.988 343.074 195.436 343.623 195.783C344.172 196.131 344.723 196.246 344.853 196.04Z" fill="#3F3D56"/>
<path id="Vector 2" d="M342.926 192.212C343.218 191.751 343.682 191.425 344.214 191.305C344.747 191.186 345.305 191.283 345.767 191.575L371.854 208.085C372.315 208.377 372.641 208.84 372.761 209.373C372.881 209.905 372.784 210.463 372.492 210.924L342.926 192.212Z" fill="#FF2700"/>
<path id="Vector 3" d="M344.882 193.797L344.567 194.294L346.555 195.551L346.869 195.055L344.882 193.797Z" fill="#D0CDE1"/>
<path id="Vector 4" d="M347.615 195.527L347.3 196.023L349.288 197.281L349.602 196.785L347.615 195.527Z" fill="#D0CDE1"/>
<g id="landscape">
<path id="Vector 7" d="M186.793 432.591C185.915 432.605 185.063 432.845 184.367 433.275C182.299 428.892 179.097 426.075 175.499 426.075C171.902 426.075 168.7 428.892 166.633 433.275C165.936 432.845 165.085 432.605 164.206 432.591C160.119 432.591 156.807 438.133 156.807 444.97H194.193C194.193 438.133 190.88 432.591 186.793 432.591Z" fill="#FF2700"/>
<path id="Vector 8" d="M94.6016 432.591C93.7217 432.605 92.8717 432.845 92.175 433.275C90.1061 428.892 86.9043 426.075 83.3074 426.075C79.7105 426.075 76.5087 428.892 74.4398 433.275C73.7431 432.845 72.8932 432.605 72.0133 432.591C67.9266 432.591 64.6138 438.133 64.6138 444.97H102.001C102.001 438.133 98.6883 432.591 94.6016 432.591Z" fill="#FF2700"/>
<path id="Vector 9" d="M453.031 432.591C452.151 432.605 451.301 432.845 450.605 433.275C448.536 428.892 445.334 426.075 441.737 426.075C438.14 426.075 434.938 428.892 432.871 433.275C432.173 432.845 431.323 432.605 430.443 432.591C426.357 432.591 423.043 438.133 423.043 444.97H460.431C460.431 438.133 457.118 432.591 453.031 432.591Z" fill="#FF2700"/>
<path id="Vector 10" d="M535.595 443.766H35V445.148H535.595V443.766Z" fill="#3F3D56"/>
<path id="Vector 11" d="M185.577 444.97H132.682V444.279C132.682 434.39 137.509 426.644 143.67 426.644C144.685 426.649 145.681 426.856 146.569 427.247C149.658 421.183 154.201 417.727 159.129 417.727C164.057 417.727 168.599 421.183 171.689 427.247C172.578 426.856 173.573 426.649 174.588 426.644C180.75 426.644 185.577 434.39 185.577 444.279V444.97ZM134.414 443.588H183.844C183.63 435.083 179.479 428.026 174.588 428.026C173.566 428.047 172.579 428.329 171.771 428.832L170.859 429.362L170.46 428.516C167.638 422.537 163.508 419.108 159.129 419.108C154.749 419.108 150.62 422.537 147.798 428.516L147.399 429.362L146.487 428.832C145.68 428.329 144.692 428.047 143.67 428.026C138.78 428.026 134.628 435.083 134.414 443.588Z" fill="#3F3D56"/>
<path id="Vector 12" d="M494.033 444.97H441.137V444.279C441.137 434.39 445.964 426.644 452.128 426.644C453.141 426.649 454.137 426.856 455.025 427.247C458.115 421.183 462.658 417.727 467.586 417.727C472.514 417.727 477.055 421.183 480.145 427.247C481.033 426.856 482.029 426.649 483.044 426.644C489.206 426.644 494.033 434.39 494.033 444.279V444.97ZM442.869 443.588H492.301C492.087 435.083 487.934 428.026 483.044 428.026C482.022 428.047 481.035 428.329 480.228 428.832L479.315 429.362L478.916 428.516C476.094 422.537 471.964 419.108 467.586 419.108C463.206 419.108 459.076 422.537 456.254 428.516L455.855 429.362L454.943 428.832C454.135 428.329 453.148 428.047 452.128 428.026C447.236 428.026 443.084 435.083 442.869 443.588Z" fill="#3F3D56"/>
<path id="Vector 13" d="M100.277 444.97H47.3822V444.279C47.3822 434.39 52.2092 426.644 58.371 426.644C59.3855 426.649 60.3813 426.856 61.2699 427.247C64.3596 421.183 68.9012 417.727 73.8291 417.727C78.7583 417.727 83.2999 421.183 86.3895 427.247C87.2782 426.856 88.274 426.649 89.2885 426.644C95.4503 426.644 100.277 434.39 100.277 444.279V444.97ZM49.1146 443.588H98.5449C98.3306 435.083 94.1791 428.026 89.2885 428.026C88.2665 428.047 87.2794 428.329 86.4718 428.832L85.5595 429.362L85.1607 428.516C82.339 422.537 78.2087 419.108 73.8291 419.108C69.4495 419.108 65.3205 422.537 62.4988 428.516L62.1 429.362L61.1877 428.832C60.3801 428.329 59.393 428.047 58.371 428.026C53.4804 428.026 49.329 435.083 49.1146 443.588Z" fill="#3F3D56"/>
<path id="Vector 14" d="M536.661 352.658C542.371 352.658 547 348.946 547 344.367C547 339.787 542.371 336.075 536.661 336.075C530.95 336.075 526.321 339.787 526.321 344.367C526.321 348.946 530.95 352.658 536.661 352.658Z" fill="#D0CDE1"/>
<g id="t1">
<path id="Vector 15" d="M215.076 386.239C224.593 386.239 232.308 380.052 232.308 372.42C232.308 364.788 224.593 358.601 215.076 358.601C205.559 358.601 197.843 364.788 197.843 372.42C197.843 380.052 205.559 386.239 215.076 386.239Z" fill="#FF2700"/>
<path id="Vector 16" d="M220.591 380.712H218.869V444.97H220.591V380.712Z" fill="#3F3D56"/>
<path id="Vector 17" d="M220.246 382.093C216.668 382.093 213.169 381.242 210.193 379.648C207.218 378.054 204.899 375.788 203.529 373.136C202.159 370.485 201.801 367.567 202.499 364.753C203.197 361.938 204.921 359.353 207.451 357.324C209.982 355.294 213.205 353.912 216.716 353.353C220.226 352.793 223.864 353.08 227.17 354.178C230.476 355.276 233.302 357.136 235.29 359.522C237.278 361.908 238.34 364.714 238.34 367.584C238.334 371.431 236.425 375.119 233.034 377.839C229.642 380.559 225.043 382.089 220.246 382.093ZM220.246 354.456C217.008 354.456 213.842 355.226 211.15 356.668C208.458 358.111 206.36 360.161 205.122 362.56C203.882 364.959 203.557 367.598 204.189 370.145C204.821 372.691 206.38 375.03 208.67 376.866C210.959 378.702 213.876 379.953 217.051 380.459C220.227 380.966 223.519 380.706 226.51 379.712C229.502 378.719 232.058 377.036 233.857 374.877C235.656 372.718 236.616 370.18 236.616 367.584C236.611 364.103 234.885 360.766 231.815 358.305C228.747 355.844 224.585 354.46 220.246 354.456Z" fill="#3F3D56"/>
</g>
<g id="t1 2">
<path id="Vector 18" d="M510.812 385.133C520.33 385.133 528.045 378.946 528.045 371.314C528.045 363.682 520.33 357.495 510.812 357.495C501.295 357.495 493.58 363.682 493.58 371.314C493.58 378.946 501.295 385.133 510.812 385.133Z" fill="#FF2700"/>
<path id="Vector 19" d="M516.328 379.605H514.604V443.863H516.328V379.605Z" fill="#3F3D56"/>
<path id="Vector 20" d="M515.982 380.987C512.403 380.987 508.905 380.136 505.93 378.541C502.954 376.947 500.636 374.681 499.266 372.03C497.896 369.378 497.537 366.461 498.236 363.646C498.934 360.832 500.657 358.246 503.188 356.217C505.718 354.188 508.942 352.806 512.452 352.246C515.962 351.686 519.6 351.973 522.906 353.072C526.213 354.17 529.038 356.03 531.027 358.416C533.015 360.802 534.076 363.607 534.076 366.477C534.071 370.324 532.163 374.012 528.77 376.732C525.379 379.452 520.779 380.982 515.982 380.987ZM515.982 353.349C512.745 353.349 509.579 354.119 506.887 355.561C504.195 357.004 502.096 359.054 500.857 361.453C499.619 363.852 499.295 366.492 499.926 369.038C500.558 371.585 502.118 373.924 504.407 375.76C506.695 377.596 509.613 378.846 512.788 379.353C515.964 379.859 519.256 379.599 522.247 378.606C525.238 377.612 527.795 375.929 529.594 373.77C531.392 371.612 532.353 369.073 532.353 366.477C532.348 362.996 530.621 359.66 527.552 357.198C524.484 354.737 520.323 353.353 515.982 353.349Z" fill="#3F3D56"/>
</g>
<path id="Vector 21" d="M530.63 356.113C528.414 356.113 526.249 355.586 524.407 354.599C522.565 353.612 521.129 352.209 520.281 350.568C519.434 348.927 519.212 347.12 519.643 345.378C520.076 343.636 521.143 342.035 522.709 340.779C524.276 339.523 526.271 338.667 528.445 338.321C530.617 337.974 532.869 338.152 534.916 338.832C536.962 339.512 538.712 340.663 539.943 342.14C541.173 343.617 541.83 345.354 541.83 347.13C541.827 349.512 540.646 351.795 538.546 353.479C536.446 355.163 533.6 356.11 530.63 356.113ZM530.63 339.53C528.755 339.53 526.923 339.976 525.364 340.811C523.805 341.646 522.591 342.833 521.873 344.222C521.156 345.611 520.968 347.139 521.333 348.613C521.7 350.088 522.602 351.442 523.928 352.505C525.253 353.568 526.942 354.292 528.78 354.585C530.618 354.878 532.524 354.728 534.256 354.152C535.989 353.577 537.468 352.603 538.51 351.353C539.551 350.103 540.107 348.634 540.107 347.13C540.104 345.115 539.105 343.184 537.329 341.759C535.551 340.334 533.142 339.532 530.63 339.53Z" fill="#3F3D56"/>
</g>
<path id="outline1" d="M304.148 206.739L279.28 182.41H166.445V112.624H314.388V182.41H303.909L304.148 206.739ZM167.827 181.028H279.845L302.733 203.42L302.512 181.028H313.005V114.006H167.827V181.028Z" fill="#FF2700"/>
<path id="lovehide" d="M341.248 190.778L328.953 178.488C327.298 176.835 326.349 174.604 326.306 172.266C326.262 169.928 327.128 167.664 328.72 165.95C330.313 164.236 332.508 163.207 334.844 163.077C337.181 162.948 339.476 163.729 341.248 165.256C343.021 163.729 345.316 162.948 347.652 163.078C349.989 163.207 352.184 164.237 353.776 165.95C355.369 167.664 356.234 169.928 356.191 172.266C356.148 174.604 355.199 176.835 353.545 178.488L341.248 190.778ZM335.345 164.449C333.83 164.448 332.349 164.896 331.09 165.737C329.83 166.578 328.848 167.773 328.269 169.171C327.689 170.57 327.537 172.109 327.833 173.593C328.129 175.078 328.859 176.442 329.93 177.511L341.248 188.824L352.567 177.511C354.002 176.076 354.808 174.129 354.808 172.1C354.807 170.071 354.001 168.125 352.565 166.69C351.129 165.255 349.182 164.448 347.152 164.448C345.121 164.448 343.174 165.253 341.737 166.687L341.249 167.176L340.76 166.687C340.049 165.976 339.205 165.413 338.276 165.028C337.346 164.644 336.35 164.448 335.345 164.449Z" fill="#FF2700"/>
<path id="Vector 25" d="M200.402 163.832L188.106 151.543C186.451 149.889 185.502 147.659 185.459 145.321C185.415 142.982 186.281 140.718 187.873 139.005C189.466 137.291 191.661 136.261 193.997 136.132C196.334 136.002 198.629 136.783 200.402 138.311C202.174 136.784 204.469 136.003 206.806 136.132C209.142 136.262 211.337 137.291 212.929 139.005C214.522 140.719 215.387 142.982 215.344 145.321C215.301 147.659 214.352 149.889 212.698 151.543L200.402 163.832ZM194.498 137.504C192.983 137.503 191.502 137.951 190.243 138.791C188.983 139.632 188.001 140.827 187.422 142.226C186.842 143.624 186.69 145.163 186.986 146.648C187.282 148.132 188.012 149.496 189.083 150.566L200.402 161.878L211.72 150.566C213.155 149.13 213.961 147.184 213.961 145.155C213.96 143.125 213.154 141.179 211.718 139.744C210.282 138.309 208.335 137.503 206.305 137.503C204.274 137.502 202.327 138.308 200.89 139.742L200.402 140.23L199.913 139.742C199.202 139.031 198.358 138.467 197.429 138.083C196.5 137.699 195.504 137.502 194.498 137.504Z" fill="#FF2700"/>
<path id="Vector 26" d="M243.264 143.726C243.076 143.539 242.853 143.39 242.608 143.288C242.363 143.186 242.1 143.134 241.835 143.134C241.57 143.134 241.307 143.186 241.062 143.287C240.816 143.389 240.594 143.538 240.406 143.725C240.218 143.913 240.069 144.136 239.968 144.381C239.866 144.626 239.814 144.888 239.814 145.154C239.814 145.419 239.867 145.682 239.968 145.927C240.07 146.172 240.219 146.394 240.407 146.582L243.264 149.437L246.121 146.582C246.308 146.394 246.457 146.172 246.559 145.927C246.661 145.682 246.713 145.419 246.713 145.154C246.713 144.888 246.661 144.626 246.56 144.381C246.458 144.136 246.309 143.913 246.122 143.725C245.934 143.538 245.711 143.389 245.466 143.287C245.221 143.186 244.958 143.134 244.692 143.134C244.427 143.134 244.164 143.186 243.919 143.288C243.674 143.39 243.451 143.539 243.264 143.726Z" fill="#FF2700"/>
<path id="Vector 27" d="M231.511 143.726C231.324 143.539 231.101 143.39 230.856 143.288C230.611 143.186 230.348 143.134 230.082 143.134C229.817 143.134 229.554 143.186 229.309 143.287C229.064 143.389 228.841 143.538 228.653 143.725C228.466 143.913 228.317 144.136 228.215 144.381C228.114 144.626 228.062 144.888 228.062 145.154C228.062 145.419 228.114 145.682 228.216 145.927C228.318 146.172 228.467 146.394 228.654 146.582L231.511 149.437L234.368 146.582C234.556 146.394 234.705 146.172 234.807 145.927C234.908 145.682 234.961 145.419 234.961 145.154C234.961 144.888 234.909 144.626 234.807 144.381C234.706 144.136 234.557 143.913 234.369 143.725C234.181 143.538 233.959 143.389 233.713 143.287C233.468 143.186 233.205 143.134 232.94 143.134C232.675 143.134 232.412 143.186 232.167 143.288C231.921 143.39 231.699 143.539 231.511 143.726Z" fill="#FF2700"/>
<path id="Vector 28" d="M237.651 165.136C234.643 165.136 231.702 164.245 229.201 162.574C226.7 160.904 224.751 158.53 223.6 155.753C222.448 152.975 222.147 149.919 222.734 146.97C223.321 144.021 224.769 141.313 226.896 139.187C229.023 137.061 231.733 135.613 234.684 135.027C237.634 134.44 240.692 134.741 243.471 135.892C246.25 137.042 248.626 138.991 250.297 141.49C251.968 143.99 252.86 146.929 252.86 149.935C252.855 153.966 251.252 157.829 248.4 160.679C245.549 163.529 241.683 165.132 237.651 165.136ZM237.651 136.116C234.916 136.116 232.243 136.927 229.969 138.445C227.696 139.964 225.923 142.122 224.877 144.647C223.83 147.172 223.557 149.951 224.09 152.631C224.624 155.312 225.94 157.774 227.874 159.707C229.808 161.64 232.271 162.956 234.953 163.489C237.636 164.022 240.416 163.748 242.942 162.702C245.469 161.657 247.628 159.885 249.147 157.613C250.666 155.34 251.477 152.669 251.477 149.935C251.473 146.272 250.015 142.759 247.423 140.169C244.831 137.578 241.317 136.121 237.651 136.116Z" fill="#FF2700"/>
<g id="imoji">
<path id="Vector 29" d="M274.982 165.136C271.974 165.136 269.034 164.245 266.533 162.574C264.031 160.904 262.082 158.53 260.931 155.753C259.78 152.975 259.479 149.919 260.065 146.97C260.652 144.021 262.101 141.313 264.228 139.187C266.355 137.061 269.065 135.613 272.015 135.027C274.965 134.44 278.024 134.741 280.803 135.892C283.582 137.042 285.957 138.991 287.628 141.49C289.299 143.99 290.191 146.929 290.191 149.935C290.187 153.966 288.583 157.829 285.732 160.679C282.88 163.529 279.015 165.132 274.982 165.136ZM274.982 136.116C272.248 136.116 269.575 136.927 267.301 138.445C265.027 139.964 263.255 142.122 262.208 144.647C261.162 147.172 260.888 149.951 261.422 152.631C261.955 155.312 263.272 157.774 265.206 159.707C267.139 161.64 269.603 162.956 272.285 163.489C274.967 164.022 277.747 163.748 280.273 162.702C282.8 161.657 284.959 159.885 286.479 157.613C287.998 155.34 288.809 152.669 288.809 149.935C288.805 146.272 287.347 142.759 284.754 140.169C282.162 137.578 278.648 136.121 274.982 136.116Z" fill="#FF2700"/>
<path id="Vector 30" d="M281.204 148.554C283.113 148.554 284.661 147.007 284.661 145.099C284.661 143.191 283.113 141.644 281.204 141.644C279.295 141.644 277.748 143.191 277.748 145.099C277.748 147.007 279.295 148.554 281.204 148.554Z" fill="#FF2700"/>
<path id="Vector 31" d="M269.452 148.554C271.361 148.554 272.908 147.007 272.908 145.099C272.908 143.191 271.361 141.644 269.452 141.644C267.543 141.644 265.995 143.191 265.995 145.099C265.995 147.007 267.543 148.554 269.452 148.554Z" fill="#FF2700"/>
<path id="Vector 32" d="M270.673 152.699C269.263 162.452 280.456 164.43 279.336 152.699C279.402 152.691 271.124 152.705 270.673 152.699Z" fill="#FF2700"/>
</g>
<path id="Vector 33" d="M232.324 154.723C235.486 158.971 240.951 159.352 243.873 154.723H232.324Z" fill="#FF2700"/>
<g id="Group 1">
<path id="outline" d="M78.4572 87.7502L78.6434 68.8176H70.5149V14.5099H185.274V68.8176H97.7476L78.4572 87.7502ZM71.5874 67.7422H79.7264L79.5554 85.1678L97.3101 67.7422H184.202V15.5853H71.5874V67.7422Z" fill="#FF2700"/>
<path id="Vector 24" d="M160.387 31.7835H91.2546V32.4745H160.387V31.7835Z" fill="#FF2700"/>
<path id="Vector 34" d="M160.387 40.0749H91.2546V40.7659H160.387V40.0749Z" fill="#FF2700"/>
<path id="Vector 35" d="M160.387 47.6753H91.2546V48.3663H160.387V47.6753Z" fill="#FF2700"/>
</g>
<g id="rightLeg">
<path id="Vector 36" d="M402.586 402.55L403.49 416.789L417.962 414.303L417.058 400.517L402.586 402.55Z" fill="#FFB8B8"/>
<path id="Vector 37" d="M400.551 273.506L410.726 342.209C410.726 342.209 416.153 368.651 416.605 378.821C417.058 388.991 418.867 402.099 418.867 402.099L400.551 405.037L382.461 316.445L400.551 273.506Z" fill="#2F2E41"/>
<path id="Vector 38" d="M420.676 407.071L406.204 407.975C406.204 407.975 400.816 401.873 401.136 405.037C401.455 408.201 398.064 421.534 398.064 421.534L386.758 433.286C386.758 433.286 364.372 433.286 367.763 444.134C371.155 454.982 397.611 445.942 397.611 445.942L407.787 442.552V447.072C407.787 447.072 425.198 449.558 425.65 445.038C426.103 440.518 425.65 434.868 424.972 434.416C424.294 433.964 420.676 407.071 420.676 407.071Z" fill="#2F2E41"/>
</g>
<g id="leftLeg">
<path id="Vector 39" d="M338.142 410.473L335.428 419.513L351.483 422.451L353.744 414.089L338.142 410.473Z" fill="#FFB8B8"/>
<path id="Vector 40" d="M404.056 210.804L405.526 220.861C405.526 220.861 424.067 257.699 403.943 275.779L376.808 342.674C376.808 342.674 373.869 377.478 365.276 389.682L357.362 417.479L333.845 411.377L352.839 351.036C352.839 351.036 352.613 325.724 355.327 320.074L367.311 266.287L369.459 208.771C369.459 208.771 401.116 206.511 404.056 210.804Z" fill="#2F2E41"/>
<path id="Vector 41" d="M353.793 418.226C353.793 418.226 343.449 417.399 342 416.158C340.552 414.918 338.276 409.748 335.173 413.057C332.07 416.365 320.898 427.117 320.898 427.117L310.14 432.287C310.14 432.287 296.072 428.565 291.313 437.249C286.555 445.934 314.691 455.032 321.932 452.137L331.035 450.276L330.622 454.618C330.622 454.618 343.449 457.513 345.311 453.791C347.173 450.069 348.621 445.727 347.793 444.486C346.966 443.246 353.793 418.226 353.793 418.226Z" fill="#2F2E41"/>
</g>
<path id="Vector 42" d="M430.173 158.938L414.154 194.359L407.199 209.735L404.621 215.437L367.311 214.985L371.155 188.996C365.728 174.984 378.617 169.334 378.617 169.334L389.471 157.774V159.616C389.471 159.616 400.099 146.96 404.847 139.728C409.596 132.496 416.153 135.208 416.153 135.208C427.459 134.078 430.173 158.938 430.173 158.938Z" fill="#575A89"/>
<path id="Vector 43" opacity="0.2" d="M414.154 194.359L407.199 209.735C404.965 205.559 403.264 200.829 403.264 198.036C403.264 190.352 410.952 194.42 410.952 194.42C410.952 194.42 404.734 160.407 404.734 150.237C404.734 143.482 410.369 173.461 414.154 194.359Z" fill="black"/>
<g id="handleft">
<path id="Vector 44" d="M340.46 193.085L341.28 191.79C341.48 191.475 341.797 191.252 342.161 191.17C342.525 191.089 342.906 191.155 343.221 191.354L372.924 210.153C373.297 210.389 373.561 210.764 373.658 211.195C373.755 211.626 373.676 212.078 373.44 212.451L372.758 213.527L340.46 193.085Z" fill="#3F3D56"/>
<path id="Vector 45" d="M408.013 196.906L374.321 196.228C374.321 196.228 349.674 198.262 353.292 208.206C356.91 218.149 376.582 208.206 376.582 208.206L415.927 214.307L408.013 196.906Z" fill="#FFB8B8"/>
<path id="Vector 46" d="M414.344 137.016C414.344 137.016 402.586 137.92 402.586 148.09C402.586 158.26 413.214 194.42 413.214 194.42C413.214 194.42 405.526 190.352 405.526 198.036C405.526 205.72 418.415 228.093 419.771 213.177C419.771 213.177 439.218 222.669 438.087 204.816C436.956 186.962 424.746 149.22 424.746 149.22C424.746 149.22 423.389 136.338 414.344 137.016Z" fill="#575A89"/>
</g>
<g id="head">
<path id="Vector 5" d="M386.984 135.195C397.224 135.195 405.526 126.898 405.526 116.663C405.526 106.429 397.224 98.1317 386.984 98.1317C376.743 98.1317 368.442 106.429 368.442 116.663C368.442 126.898 376.743 135.195 386.984 135.195Z" fill="#FFB8B8"/>
<path id="Vector 6" d="M388.114 129.771C388.114 129.771 397.159 144.009 394.898 148.077C392.637 152.145 385.627 163.219 385.627 163.219C385.627 163.219 416.832 140.167 412.761 135.195C412.761 135.195 403.49 127.285 403.038 122.313L388.114 129.771Z" fill="#FFB8B8"/>
<path id="Vector 47" d="M387.6 115.339C386.302 114.083 386.326 111.965 385.28 110.492C383.636 108.18 380.215 108.335 377.406 108.734C375.526 108.919 373.679 109.348 371.911 110.011C371.135 110.329 370.445 110.824 369.893 111.455C369.341 112.087 368.944 112.838 368.732 113.649C368.512 114.559 368.027 111.975 367.533 108.628C367.028 105.213 367.619 101.726 369.224 98.6692C370.828 95.612 373.362 93.1429 376.46 91.6175C376.497 91.5994 376.534 91.5816 376.57 91.564C379.748 90.0207 383.076 88.6577 386.588 88.2748C390.1 87.8918 393.848 88.5852 396.602 90.7962C397.861 91.8067 398.885 93.104 400.235 93.9898C402.606 95.5461 405.609 95.6215 408.427 95.9496C411.635 96.2271 414.747 97.1814 417.559 98.7497C420.385 100.348 422.468 102.994 423.354 106.116C424.247 109.749 422.79 114.043 419.217 115.62C418.593 115.882 418.039 116.288 417.602 116.804C414.667 120.389 419.405 122.351 420.092 125.472C420.665 128.076 418.159 130.433 415.59 131.15C413.172 131.751 410.62 131.493 408.371 130.419C406.123 129.345 404.318 127.524 403.266 125.266C402.385 123.223 402.184 120.963 401.945 118.752C401.67 116.22 395.026 111.635 399.512 115.084C400.382 115.735 401.068 116.602 401.501 117.599C402.865 120.863 400.034 122.716 398.515 125.047C397.688 126.358 397.246 127.874 397.237 129.424C397.229 130.973 397.655 132.494 398.468 133.814C396.524 132.726 395.022 130.994 394.219 128.917C393.417 126.84 393.365 124.549 394.072 122.438C394.479 121.33 395.097 120.306 395.467 119.185C396.044 117.437 395.534 114.039 392.952 114.728C391.109 115.219 389.533 117.208 387.6 115.339Z" fill="#2F2E41"/>
</g>
</g>
</g>
<defs>
<clipPath id="clip0">
<rect width="547" height="455" fill="white"/>
</clipPath>
</defs>
</svg>
